<?xml version="1.0"?>
<svg width="640" height="480" xmlns="http://www.w3.org/2000/svg" xmlns:svg="http://www.w3.org/2000/svg">
 <!-- Created with SVG-edit - https://github.com/SVG-Edit/svgedit-->
 <g class="layer">
  <title>Layer 1</title>
  <polygon cx="43.5" cy="314.399994" fill="#FF0000" id="svg_2" orient="point" point="5" points="149.0000146414095,285.7334991954849 175.23771329657757,353.4874550446402 255.13405060731748,354.94559009531804 191.4538767266058,398.2821741920634 214.59458089072723,466.93948834881303 149.0000146414095,425.96894185669953 83.40544839209178,466.93948834881303 106.5461525562132,398.2821741920634 42.86597867550154,354.94559009531804 122.76231598624145,353.4874550446402 149.0000146414095,285.7334991954849 175.23771329657757,353.4874550446402 " r="0.666667" r2="0.266667" shape="star" stroke="#000000" stroke-width="5" strokeWidth="5" strokecolor="#000000"/>
  <polygon cx="43.5" cy="314.399994" fill="#FF0000" id="svg_3" orient="point" point="5" points="148,50.897003173828125 174.23770141601562,118.65097045898438 254.134033203125,120.10910034179688 190.453857421875,163.4456787109375 213.59454345703125,232.10299682617188 148,191.1324462890625 82.40542602539062,232.10299682617188 105.546142578125,163.4456787109375 41.865966796875,120.10910034179688 121.76229858398438,118.65097045898438 148,50.897003173828125 174.23770141601562,118.65097045898438 " r="0.666667" r2="0.266667" shape="star" stroke="#000000" stroke-width="5" strokeWidth="5" strokecolor="#000000"/>
  <polygon cx="43.5" cy="314.399994" fill="#FF0000" id="svg_4" orient="point" point="5" points="332,167.89700317382812 358.2377014160156,235.65097045898438 438.134033203125,237.10910034179688 374.453857421875,280.4456787109375 397.59454345703125,349.1029968261719 332,308.1324462890625 266.4054260253906,349.1029968261719 289.546142578125,280.4456787109375 225.865966796875,237.10910034179688 305.7622985839844,235.65097045898438 332,167.89700317382812 358.2377014160156,235.65097045898438 " r="0.666667" r2="0.266667" shape="star" stroke="#000000" stroke-width="5" strokeWidth="5" strokecolor="#000000"/>
  <polygon cx="43.5" cy="314.399994" fill="#FF0000" id="svg_5" orient="point" point="5" points="509,52.897003173828125 535.2377014160156,120.65097045898438 615.134033203125,122.10910034179688 551.453857421875,165.4456787109375 574.5945434570312,234.10299682617188 509,193.1324462890625 443.4054260253906,234.10299682617188 466.546142578125,165.4456787109375 402.865966796875,122.10910034179688 482.7622985839844,120.65097045898438 509,52.897003173828125 535.2377014160156,120.65097045898438 " r="0.666667" r2="0.266667" shape="star" stroke="#000000" stroke-width="5" strokeWidth="5" strokecolor="#000000"/>
  <polygon cx="43.5" cy="314.399994" fill="#FF0000" id="svg_6" orient="point" point="5" points="510,282.8970031738281 536.2377014160156,350.6509704589844 616.134033203125,352.1091003417969 552.453857421875,395.4456787109375 575.5945434570312,464.1029968261719 510,423.1324462890625 444.4054260253906,464.1029968261719 467.546142578125,395.4456787109375 403.865966796875,352.1091003417969 483.7622985839844,350.6509704589844 510,282.8970031738281 536.2377014160156,350.6509704589844 " r="0.666667" r2="0.266667" shape="star" stroke="#000000" stroke-width="5" strokeWidth="5" strokecolor="#000000"/>
  <rect fill="none" height="466.000009" id="svg_7" stroke="#000000" stroke-dasharray="null" stroke-linecap="null" stroke-linejoin="null" stroke-width="5" width="615" x="12.5" y="7.399994"/>
 </g>
</svg>