<?xml version="1.0"?>
<svg width="640" height="480" xmlns="http://www.w3.org/2000/svg" xmlns:svg="http://www.w3.org/2000/svg">
 <!-- Created with SVG-edit - https://github.com/SVG-Edit/svgedit-->

 <g class="layer">
  <title>Layer 1</title>
  <text fill="#007f7f" font-family="serif" font-size="24" id="svg_1" stroke="#000000" stroke-width="0" style="cursor: move;" text-anchor="middle" transform="rotate(-38.0032, 199.565, 163.806) matrix(2.00086, 0, 0, 1.28173, -349.943, -26.8773)" x="274.690669" xml:space="preserve" y="156.804813">Logros educativos</text>
  <polygon fill="#000000" id="svg_3" points="137.99999809265137,249.3999976667219 142.65126767836045,261.8607217329991 156.81478655699175,262.1294952827775 145.5259091660264,270.0994161110866 149.6281720569241,282.7262312279963 137.99999809265137,275.19121515750885 126.37182412837865,282.7262312279963 130.47408701927634,270.0994161110866 119.18520962831099,262.1294952827775 133.34872850694228,261.8607217329991 137.99999809265137,249.3999976667219 142.65126767836045,261.8607217329991 " stroke="#000000" stroke-width="5"/>
  <polygon fill="#000000" id="svg_4"/>
  <polygon fill="#000000" id="svg_5"/>
  <polygon fill="none" id="svg_8"/>
  <polygon fill="none" id="svg_9"/>
  <polygon fill="none" id="svg_10"/>
  <polygon fill="none" id="svg_11"/>
  <polygon fill="none" id="svg_12"/>
  <polygon fill="none" id="svg_13"/>
  <polygon fill="none" id="svg_15"/>
  <polygon fill="none" id="svg_21"/>
  <polygon fill="#000000" id="svg_22" points="237,171.83688354492188 241.2804412841797,184.297607421875 254.31478881835938,184.56637573242188 243.92593383789062,192.5363006591797 247.70114135742188,205.16311645507812 237,197.6280975341797 226.29885864257812,205.16311645507812 230.07406616210938,192.5363006591797 219.68521118164062,184.56637573242188 232.71954345703125,184.297607421875 237,171.83688354492188 241.2804412841797,184.297607421875 " stroke="#000000" stroke-width="5"/>
  <polygon fill="#000000" id="svg_23" points="347.5,89.83688354492188 353.3873291015625,106.03662109375 371.3147888183594,106.38604736328125 357.02593994140625,116.74745178222656 362.2183532714844,133.16311645507812 347.5,123.36711120605469 332.7816162109375,133.16311645507812 337.97406005859375,116.74745178222656 323.6852111816406,106.38604736328125 341.6126708984375,106.03662109375 347.5,89.83688354492188 353.3873291015625,106.03662109375 " stroke="#000000" stroke-width="5"/>
  <polygon fill="#000000" id="svg_24" points="466.9999953508377,171.83688311659353 472.0220957139463,185.7932119705947 487.31478352726117,186.09423828891522 475.1259263018728,195.02076255008433 479.5552266580271,209.16311473763926 466.9999953508377,200.723704619013 454.4447640436483,209.16311473763926 458.8740643998026,195.02076255008433 446.68520717441424,186.09423828891522 461.9778949877291,185.7932119705947 466.9999953508377,171.83688311659353 472.0220957139463,185.7932119705947 " stroke="#000000" stroke-width="5"/>
  <polygon fill="#000000" id="svg_25" points="560.4999985694885,233.83688124836408 566.6345996537566,247.79321031362633 585.3148182715668,248.09424355092415 570.4259264503198,257.02075834351126 575.8363875289797,271.16311362563647 560.4999985694885,262.7237032645353 545.1636096099974,271.16311362563647 550.5740706886572,257.02075834351126 535.6851788674103,248.09424355092415 554.3653974852205,247.79321031362633 560.4999985694885,233.83688124836408 566.6345996537566,247.79321031362633 " stroke="#000000" stroke-width="5"/>
  <text fill="#007f7f" font-family="serif" font-size="24" id="svg_26" stroke="#000000" stroke-width="0" style="cursor: move;" text-anchor="middle" transform="rotate(32.7472, 493.225, 148.215) matrix(1.85709, 0, 0, 1.49137, -299.709, -44.3831)" x="427.031183" xml:space="preserve" y="137.157719">Logros educativos</text>
  <text fill="#0000ff" font-family="serif" font-size="24" id="svg_27" stroke="#000000" stroke-dasharray="null" stroke-linecap="null" stroke-linejoin="null" stroke-width="0" text-anchor="middle" transform="matrix(1.53473, 0, 0, 2.56154, -169.779, -249.77)" x="331.074698" xml:space="preserve" y="203.261854">D.A.F.R</text>
  <rect fill="none" height="471.999989" id="svg_28" stroke="#007f00" stroke-dasharray="null" stroke-linecap="null" stroke-linejoin="null" stroke-width="5" width="632.000012" x="3.500005" y="3.400001"/>
 </g>
</svg>